ModelForces
version=1
nRows=4
nColumns=157
inDegrees=no

This file contains the forces exerted on a model during a simulation.

A force is a generalized force, meaning that it can be either a force (N) or a torque (Nm).

Units are S.I. units (second, meters, Newtons, ...)
Angles are in degrees.

endheader
time	glut_med1_r	glut_med2_r	glut_med3_r	glut_min1_r	glut_min2_r	glut_min3_r	semimem_r	semiten_r	bifemlh_r	bifemsh_r	sar_r	add_long_r	add_brev_r	add_mag1_r	add_mag2_r	add_mag3_r	tfl_r	pect_r	grac_r	glut_max1_r	glut_max2_r	glut_max3_r	iliacus_r	psoas_r	quad_fem_r	gem_r	peri_r	rect_fem_r	vas_med_r	vas_int_r	vas_lat_r	med_gas_r	lat_gas_r	soleus_r	tib_post_r	flex_dig_r	flex_hal_r	tib_ant_r	per_brev_r	per_long_r	per_tert_r	ext_dig_r	ext_hal_r	glut_med1_l	glut_med2_l	glut_med3_l	glut_min1_l	glut_min2_l	glut_min3_l	semimem_l	semiten_l	bifemlh_l	bifemsh_l	sar_l	add_long_l	add_brev_l	add_mag1_l	add_mag2_l	add_mag3_l	tfl_l	pect_l	grac_l	glut_max1_l	glut_max2_l	glut_max3_l	iliacus_l	psoas_l	quad_fem_l	gem_l	peri_l	rect_fem_l	vas_med_l	vas_int_l	vas_lat_l	med_gas_l	lat_gas_l	soleus_l	tib_post_l	flex_dig_l	flex_hal_l	tib_ant_l	per_brev_l	per_long_l	per_tert_l	ext_dig_l	ext_hal_l	ercspn_r	ercspn_l	intobl_r	intobl_l	extobl_r	extobl_l	femur_lat_meniscii_r.femur_lat_r.force.X	femur_lat_meniscii_r.femur_lat_r.force.Y	femur_lat_meniscii_r.femur_lat_r.force.Z	femur_lat_meniscii_r.femur_lat_r.torque.X	femur_lat_meniscii_r.femur_lat_r.torque.Y	femur_lat_meniscii_r.femur_lat_r.torque.Z	femur_lat_meniscii_r.meniscus_lat_r.force.X	femur_lat_meniscii_r.meniscus_lat_r.force.Y	femur_lat_meniscii_r.meniscus_lat_r.force.Z	femur_lat_meniscii_r.meniscus_lat_r.torque.X	femur_lat_meniscii_r.meniscus_lat_r.torque.Y	femur_lat_meniscii_r.meniscus_lat_r.torque.Z	femur_med_meniscii_r.femur_med_r.force.X	femur_med_meniscii_r.femur_med_r.force.Y	femur_med_meniscii_r.femur_med_r.force.Z	femur_med_meniscii_r.femur_med_r.torque.X	femur_med_meniscii_r.femur_med_r.torque.Y	femur_med_meniscii_r.femur_med_r.torque.Z	femur_med_meniscii_r.meniscus_med_r.force.X	femur_med_meniscii_r.meniscus_med_r.force.Y	femur_med_meniscii_r.meniscus_med_r.force.Z	femur_med_meniscii_r.meniscus_med_r.torque.X	femur_med_meniscii_r.meniscus_med_r.torque.Y	femur_med_meniscii_r.meniscus_med_r.torque.Z	femur_med_tibia_r.tibia_upper_r.force.X	femur_med_tibia_r.tibia_upper_r.force.Y	femur_med_tibia_r.tibia_upper_r.force.Z	femur_med_tibia_r.tibia_upper_r.torque.X	femur_med_tibia_r.tibia_upper_r.torque.Y	femur_med_tibia_r.tibia_upper_r.torque.Z	femur_med_tibia_r.femur_med_r.force.X	femur_med_tibia_r.femur_med_r.force.Y	femur_med_tibia_r.femur_med_r.force.Z	femur_med_tibia_r.femur_med_r.torque.X	femur_med_tibia_r.femur_med_r.torque.Y	femur_med_tibia_r.femur_med_r.torque.Z	femur_lat_tibia_r.tibia_upper_r.force.X	femur_lat_tibia_r.tibia_upper_r.force.Y	femur_lat_tibia_r.tibia_upper_r.force.Z	femur_lat_tibia_r.tibia_upper_r.torque.X	femur_lat_tibia_r.tibia_upper_r.torque.Y	femur_lat_tibia_r.tibia_upper_r.torque.Z	femur_lat_tibia_r.femur_lat_r.force.X	femur_lat_tibia_r.femur_lat_r.force.Y	femur_lat_tibia_r.femur_lat_r.force.Z	femur_lat_tibia_r.femur_lat_r.torque.X	femur_lat_tibia_r.femur_lat_r.torque.Y	femur_lat_tibia_r.femur_lat_r.torque.Z	aACL_R	pACL_R	aPCL_R	pPCL_R	aMCL_R	mMCL_R	pMCL_R	aLCL_R	mLCL_R	pLCL_R	ground_prescribedForce_fx	ground_prescribedForce_fy	ground_prescribedForce_fz	ground_prescribedForce_px	ground_prescribedForce_py	ground_prescribedForce_pz
      0.25199149	      8.79100533	      6.51882812	      6.99006381	      3.04111381	      3.59323250	      3.71731786	      5.12656258	      4.56526619	      8.25208482	      8.60995856	      1.83371910	      6.46911631	      4.73045166	      3.35517901	      2.82988445	      4.66706301	      4.72259724	      2.56273324	      1.70006780	      4.20655129	      6.39519081	      4.78600022	     24.19840903	     14.71824616	      4.16016519	      3.10618799	      5.02961960	     15.00345085	     11.44150520	     12.91655202	     18.18157032	      2.45886578	      1.63000474	      9.75681066	     11.59578973	      3.12468666	      2.59078731	     15.10965945	      3.84602223	      8.29500373	      7.84003650	      6.24527059	      2.48458694	      8.79100533	      6.51882812	      6.99006381	      3.04111381	      3.59323250	      3.71731786	     10.52829555	      4.74894403	      9.17695329	      8.27830887	      1.73710758	      6.46911631	      4.73045166	      3.35517901	      2.82988445	      4.66706301	      4.51794198	      2.56273324	      1.78580851	      4.20655129	      6.39519081	      4.78600022	     24.19840903	     14.71824616	      4.16016519	      3.10618799	      5.02961960	     12.70470497	      7.61119928	      8.75460375	      9.40750580	     17.70404933	      8.22266233	     38.23047023	     45.23841549	      3.50271376	      3.61572479	      9.99168203	      5.23809044	     14.47914838	      2.27704262	      6.44709567	      2.02941247	     28.60965316	     28.60965316	     10.42008747	     10.42008747	     28.08088658	     28.08088658	     52.92959799	     57.71544043	     17.21236244	     -8.49592560	      1.28275286	     21.82437064	    -52.92959799	    -57.71544043	    -17.21236244	      1.98398440	     -1.55347084	     -0.89179738	     51.59408335	     38.92516812	     13.14742977	     -4.50759708	     -1.19502623	     21.19573175	    -51.59408335	    -38.92516812	    -13.14742977	     -0.47446870	      0.97091582	     -0.98123681	    -12.62773341	    -19.93191191	      4.10532570	     -0.47576202	      0.24884419	     -0.25052476	     12.62773341	     19.93191191	     -4.10532570	      2.08122218	     -0.22346354	      5.31204956	      0.00000000	      0.00000000	      0.00000000	      0.00000000	      0.00000000	      0.00000000	      0.00000000	      0.00000000	      0.00000000	      0.00000000	      0.00000000	      0.00000000	     47.55042160	     18.72438850	     26.13293845	      8.72718284	      0.00000000	      0.00000000	      0.00000000	      0.00000000	      0.00000000	      0.00000000	     95.26279000	    -55.00000000	      0.00000000	      0.03000000	     -0.03000000	      0.00000000
      0.25576597	      8.73122819	      6.47793907	      6.94567383	      3.02284609	      3.57338874	      3.69209806	      5.10253658	      4.54213024	      8.22351546	      8.55418725	      1.68230701	      6.42806075	      4.70230219	      3.33426789	      2.81182432	      4.63435902	      4.70199470	      2.54723624	      1.69214896	      4.18014376	      6.35493008	      4.75533766	     24.12388289	     14.63377915	      4.13462647	      3.09403229	      4.98624287	     14.90685342	     11.41134487	     12.86113316	     18.10303408	      2.44227573	      1.61197490	      9.72184923	     11.26626158	      3.17280667	      2.51702900	     14.93584983	      3.98540586	      8.35251044	      7.90599736	      6.06233622	      2.48935974	      8.73122819	      6.47793907	      6.94567383	      3.02284609	      3.57338874	      3.69209806	     10.44369829	      4.71694121	      9.10567152	      8.22744892	      1.72672155	      6.42806075	      4.70230219	      3.33426789	      2.81182432	      4.63435902	      4.49767564	      2.54723624	      1.77494324	      4.18014376	      6.35493008	      4.75533766	     24.12388289	     14.63377915	      4.13462647	      3.09403229	      4.98624287	     12.60733266	      7.56223416	      8.69723226	      9.34608018	     17.53966943	      8.14622760	     37.90015495	     45.10244281	      3.46789247	      3.58344674	      9.91780957	      5.19538317	     14.38631163	      2.26398675	      6.38828618	      2.01132482	     28.43740364	     28.43740364	     10.35188755	     10.35188755	     28.01954080	     28.01954080	     51.95758360	     56.76857982	     17.04774147	     -8.40386974	      1.25819949	     21.42167976	    -51.95758360	    -56.76857982	    -17.04774147	      1.95210748	     -1.52448488	     -0.87147247	     52.46646855	     39.57205423	     13.39697169	     -4.59515773	     -1.21576904	     21.55521522	    -52.46646855	    -39.57205423	    -13.39697169	     -0.48267257	      0.98870411	     -0.99823742	    -13.42857488	    -21.22480550	      3.80884123	     -0.49788484	      0.26602450	     -0.26589997	     13.42857488	     21.22480550	     -3.80884123	      1.99123616	     -0.24484154	      5.64895041	      0.00000000	      0.00000000	      0.00000000	      0.00000000	      0.00000000	      0.00000000	      0.00000000	      0.00000000	      0.00000000	      0.00000000	      0.00000000	      0.00000000	     48.28123549	     19.34525593	     26.59298886	      8.86616520	      0.00000000	      0.00000000	      0.00000000	      0.00000000	      0.00000000	      0.00000000	     95.26279000	    -55.00000000	      0.00000000	      0.03000000	     -0.03000000	      0.00000000
      0.25927747	      8.67821938	      6.44167029	      6.90630256	      3.00663805	      3.55578622	      3.66973333	      5.08267182	      4.52212044	      8.18911999	      8.49304534	      1.71058993	      6.39164692	      4.67731865	      3.31571975	      2.79580729	      4.60535909	      4.68374324	      2.53348760	      1.68403076	      4.15672206	      6.31922173	      4.72814408	     24.05779408	     14.55889553	      4.11197098	      3.08325665	      4.94767441	     14.82076773	     11.38998848	     12.81225479	     18.02691724	      2.42931045	      1.59760103	      9.70764673	     10.91635534	      3.19297783	      2.43157876	     14.77209483	      4.13595531	      8.44788773	      7.97038435	      5.94704712	      2.50258660	      8.67821938	      6.44167029	      6.90630256	      3.00663805	      3.55578622	      3.66973333	     10.36859653	      4.68856131	      9.04241706	      8.18233150	      1.71750579	      6.39164692	      4.67731865	      3.31571975	      2.79580729	      4.60535909	      4.47970484	      2.53348760	      1.76530408	      4.15672206	      6.31922173	      4.72814408	     24.05779408	     14.55889553	      4.11197098	      3.08325665	      4.94767441	     12.52093720	      7.51881368	      8.64636112	      9.29161682	     17.39316695	      8.07810760	     37.60648154	     44.98173640	      3.43690973	      3.55475854	      9.85228518	      5.15746079	     14.30375061	      2.25241067	      6.33599814	      1.99526025	     28.28457898	     28.28457898	     10.29140427	     10.29140427	     27.96514202	     27.96514202	     52.32396379	     56.85139395	     17.09247557	     -8.42383829	      1.26640702	     21.57429839	    -52.32396379	    -56.85139395	    -17.09247557	      1.95367573	     -1.53272090	     -0.88186764	     54.06595694	     40.75316289	     13.69308984	     -4.68939457	     -1.25329250	     22.21284102	    -54.06595694	    -40.75316289	    -13.69308984	     -0.50120580	      1.02159594	     -1.02864173	    -14.30683853	    -22.62947545	      3.53713991	     -0.52290203	      0.28487867	     -0.28304184	     14.30683853	     22.62947545	     -3.53713991	      1.91379247	     -0.26772878	      6.01856219	      0.00000000	      0.00000000	      0.00000000	      0.00000000	      0.00000000	      0.00000000	      0.00000000	      0.00000000	      0.00000000	      0.00000000	      0.00000000	      0.00000000	     48.74673391	     19.72399487	     26.64668257	      8.07001808	      0.00000000	      0.00000000	      0.00000000	      7.35955855	      0.00000000	      0.00000000	     95.26279000	    -55.00000000	      0.00000000	      0.03000000	     -0.03000000	      0.00000000
      0.26278359	      8.62767802	      6.40708127	      6.86875725	      2.99117731	      3.53899807	      3.64840922	      5.03736702	      4.48733865	      8.11053698	      8.37276657	      1.65832321	      6.35692193	      4.65348827	      3.29803077	      2.78053419	      4.57771009	      4.65954896	      2.52037344	      1.67658797	      4.13438679	      6.28516992	      4.70221373	     23.99478035	     14.48751483	      4.09036257	      3.07298584	      4.91080749	     14.68875124	     11.29805665	     12.68585089	     17.85508723	      2.40954009	      1.57147407	      9.69982656	     10.52134831	      3.18614099	      2.32939256	     14.59976312	      4.31178628	      8.58732479	      8.02416674	      5.89676978	      2.52267079	      8.62767802	      6.40708127	      6.86875725	      2.99117731	      3.53899807	      3.64840922	     10.29691647	      4.66150184	      8.98206826	      8.13929981	      1.70871481	      6.35692193	      4.65348827	      3.29803077	      2.78053419	      4.57771009	      4.46257137	      2.52037344	      1.75610997	      4.13438679	      6.28516992	      4.70221373	     23.99478035	     14.48751483	      4.09036257	      3.07298584	      4.91080749	     12.43852062	      7.47741462	      8.59786163	      9.23969481	     17.25280732	      8.01284554	     37.32578865	     44.86652970	      3.40726243	      3.52733778	      9.78979670	      5.12125801	     14.22481541	      2.24137475	      6.28602489	      1.97992283	     28.13880197	     28.13880197	     10.23373148	     10.23373148	     27.91327600	     27.91327600	     51.75710870	     56.25945309	     16.86919397	     -8.31692204	      1.25254659	     21.33992808	    -51.75710870	    -56.25945309	    -16.86919397	      1.93051385	     -1.51485239	     -0.87071036	     54.69164703	     41.19063554	     13.67006218	     -4.66972212	     -1.26705851	     22.46938253	    -54.69164703	    -41.19063554	    -13.67006218	     -0.51212673	      1.03542560	     -1.03971006	    -17.05171027	    -27.00227912	      3.70467036	     -0.61602621	      0.34105640	     -0.33700865	     17.05171027	     27.00227912	     -3.70467036	      2.07742739	     -0.32595964	      7.17352414	      0.00000000	      0.00000000	      0.00000000	      0.00000000	      0.00000000	      0.00000000	      0.00000000	      0.00000000	      0.00000000	      0.00000000	      0.00000000	      0.00000000	     49.33640078	     20.31115973	     26.68394739	      7.80168942	      0.00000000	      0.00000000	      0.00000000	      6.70530287	      0.00000000	      0.00000000	     95.26279000	    -55.00000000	      0.00000000	      0.03000000	     -0.03000000	      0.00000000
